{
	"asset":{
		"generator":"Khronos glTF Blender I/O v3.6.27",
		"version":"2.0"
	},
	"extensionsUsed":[
		"KHR_materials_specular",
		"KHR_materials_ior"
	],
	"scene":0,
	"scenes":[
		{
			"name":"Scene",
			"nodes":[
				0,
				1,
				2,
				3,
				4
			]
		}
	],
	"nodes":[
		{
			"mesh":0,
			"name":"\u041e\u043a\u0440\u0443\u0436\u043d\u043e\u0441\u0442\u044c.010",
			"rotation":[
				0.7071068286895752,
				0,
				0,
				0.7071068286895752
			],
			"scale":[
				0.0632338896393776,
				0.0632338896393776,
				0.0632338896393776
			],
			"translation":[
				0.038799215108156204,
				-7.597100920975208e-05,
				-0.23997560143470764
			]
		},
		{
			"mesh":1,
			"name":"\u041e\u043a\u0440\u0443\u0436\u043d\u043e\u0441\u0442\u044c.012",
			"rotation":[
				0.6532814502716064,
				-0.27059805393218994,
				0.27059805393218994,
				0.6532815098762512
			],
			"scale":[
				0.0632338896393776,
				0.0632338896393776,
				0.0632338896393776
			],
			"translation":[
				0.8123176097869873,
				-7.596226350869983e-05,
				-0.8434958457946777
			]
		},
		{
			"mesh":2,
			"name":"\u041e\u043a\u0440\u0443\u0436\u043d\u043e\u0441\u0442\u044c.014",
			"rotation":[
				0.27059805393218994,
				-0.6532815098762512,
				0.6532814502716064,
				0.27059805393218994
			],
			"scale":[
				0.0632338896393776,
				0.0632338896393776,
				0.0632338896393776
			],
			"translation":[
				1.5157212018966675,
				-7.596226350869983e-05,
				0.05130595713853836
			]
		},
		{
			"mesh":3,
			"name":"\u041e\u043a\u0440\u0443\u0436\u043d\u043e\u0441\u0442\u044c.016",
			"rotation":[
				0,
				0.7071068286895752,
				-0.7071068286895752,
				1.1520233300643667e-07
			],
			"scale":[
				0.0632338896393776,
				0.0632338896393776,
				0.0632338896393776
			],
			"translation":[
				1.3960598707199097,
				-7.597100920975208e-05,
				1.873664140701294
			]
		},
		{
			"mesh":4,
			"name":"\u041e\u043a\u0440\u0443\u0436\u043d\u043e\u0441\u0442\u044c.018",
			"rotation":[
				0.5000001192092896,
				0.49999988079071045,
				-0.49999988079071045,
				0.5000001192092896
			],
			"scale":[
				0.0632338896393776,
				0.0632338896393776,
				0.0632338896393776
			],
			"translation":[
				-0.09706622362136841,
				-7.596226350869983e-05,
				1.9489846229553223
			]
		}
	],
	"animations":[
		{
			"channels":[
				{
					"sampler":0,
					"target":{
						"node":0,
						"path":"translation"
					}
				}
			],
			"name":"\u041e\u043a\u0440\u0443\u0436\u043d\u043e\u0441\u0442\u044c.010Action",
			"samplers":[
				{
					"input":34,
					"interpolation":"LINEAR",
					"output":35
				}
			]
		},
		{
			"channels":[
				{
					"sampler":0,
					"target":{
						"node":1,
						"path":"translation"
					}
				}
			],
			"name":"\u041e\u043a\u0440\u0443\u0436\u043d\u043e\u0441\u0442\u044c.012Action",
			"samplers":[
				{
					"input":36,
					"interpolation":"LINEAR",
					"output":37
				}
			]
		},
		{
			"channels":[
				{
					"sampler":0,
					"target":{
						"node":2,
						"path":"translation"
					}
				}
			],
			"name":"\u041e\u043a\u0440\u0443\u0436\u043d\u043e\u0441\u0442\u044c.014Action",
			"samplers":[
				{
					"input":38,
					"interpolation":"LINEAR",
					"output":39
				}
			]
		},
		{
			"channels":[
				{
					"sampler":0,
					"target":{
						"node":3,
						"path":"translation"
					}
				}
			],
			"name":"\u041e\u043a\u0440\u0443\u0436\u043d\u043e\u0441\u0442\u044c.016Action",
			"samplers":[
				{
					"input":40,
					"interpolation":"LINEAR",
					"output":41
				}
			]
		},
		{
			"channels":[
				{
					"sampler":0,
					"target":{
						"node":4,
						"path":"translation"
					}
				},
				{
					"sampler":1,
					"target":{
						"node":4,
						"path":"rotation"
					}
				},
				{
					"sampler":2,
					"target":{
						"node":4,
						"path":"scale"
					}
				}
			],
			"name":"\u041e\u043a\u0440\u0443\u0436\u043d\u043e\u0441\u0442\u044c.018Action",
			"samplers":[
				{
					"input":42,
					"interpolation":"LINEAR",
					"output":43
				},
				{
					"input":42,
					"interpolation":"LINEAR",
					"output":44
				},
				{
					"input":45,
					"interpolation":"STEP",
					"output":46
				}
			]
		}
	],
	"materials":[
		{
			"doubleSided":true,
			"extensions":{
				"KHR_materials_specular":{
					"specularColorTexture":{
						"index":0
					},
					"specularColorFactor":[
						1.4132211693100267,
						1.1152837566364082,
						1
					]
				},
				"KHR_materials_ior":{
					"ior":1.4500000476837158
				}
			},
			"name":"\u041c\u0430\u0442\u0435\u0440\u0438\u0430\u043b",
			"pbrMetallicRoughness":{
				"baseColorTexture":{
					"index":1
				},
				"metallicFactor":0.35681819915771484,
				"roughnessFactor":0.1577271968126297
			}
		},
		{
			"doubleSided":true,
			"name":"Rubber",
			"pbrMetallicRoughness":{
				"baseColorFactor":[
					0,
					0,
					0,
					1
				],
				"metallicFactor":0,
				"roughnessFactor":0.836363673210144
			}
		}
	],
	"meshes":[
		{
			"name":"\u041e\u043a\u0440\u0443\u0436\u043d\u043e\u0441\u0442\u044c.034",
			"primitives":[
				{
					"attributes":{
						"POSITION":0,
						"NORMAL":1,
						"TEXCOORD_0":2
					},
					"indices":3,
					"material":0
				},
				{
					"attributes":{
						"POSITION":4,
						"NORMAL":5,
						"TEXCOORD_0":6
					},
					"indices":7,
					"material":1
				}
			]
		},
		{
			"name":"\u041e\u043a\u0440\u0443\u0436\u043d\u043e\u0441\u0442\u044c.036",
			"primitives":[
				{
					"attributes":{
						"POSITION":8,
						"NORMAL":9,
						"TEXCOORD_0":10
					},
					"indices":11,
					"material":0
				},
				{
					"attributes":{
						"POSITION":12,
						"NORMAL":13,
						"TEXCOORD_0":14
					},
					"indices":15,
					"material":1
				}
			]
		},
		{
			"name":"\u041e\u043a\u0440\u0443\u0436\u043d\u043e\u0441\u0442\u044c.040",
			"primitives":[
				{
					"attributes":{
						"POSITION":16,
						"NORMAL":17,
						"TEXCOORD_0":18
					},
					"indices":3,
					"material":0
				},
				{
					"attributes":{
						"POSITION":19,
						"NORMAL":20,
						"TEXCOORD_0":21
					},
					"indices":7,
					"material":1
				}
			]
		},
		{
			"name":"\u041e\u043a\u0440\u0443\u0436\u043d\u043e\u0441\u0442\u044c.042",
			"primitives":[
				{
					"attributes":{
						"POSITION":22,
						"NORMAL":23,
						"TEXCOORD_0":24
					},
					"indices":11,
					"material":0
				},
				{
					"attributes":{
						"POSITION":25,
						"NORMAL":26,
						"TEXCOORD_0":27
					},
					"indices":15,
					"material":1
				}
			]
		},
		{
			"name":"\u041e\u043a\u0440\u0443\u0436\u043d\u043e\u0441\u0442\u044c.044",
			"primitives":[
				{
					"attributes":{
						"POSITION":28,
						"NORMAL":29,
						"TEXCOORD_0":30
					},
					"indices":11,
					"material":0
				},
				{
					"attributes":{
						"POSITION":31,
						"NORMAL":32,
						"TEXCOORD_0":33
					},
					"indices":15,
					"material":1
				}
			]
		}
	],
	"textures":[
		{
			"sampler":0,
			"source":0
		},
		{
			"sampler":0,
			"source":1
		}
	],
	"images":[
		{
			"mimeType":"image/png",
			"name":"Image",
			"uri":"Image.png"
		},
		{
			"mimeType":"image/png",
			"name":"\u0411\u0435\u0437 \u0438\u043c\u0435\u043d\u0438-1",
			"uri":"%D0%91%D0%B5%D0%B7%20%D0%B8%D0%BC%D0%B5%D0%BD%D0%B8-1.png"
		}
	],
	"accessors":[
		{
			"bufferView":0,
			"componentType":5126,
			"count":2435,
			"max":[
				2.119932174682617,
				26.86752700805664,
				1.1452120542526245
			],
			"min":[
				-1.145211935043335,
				-2.594517707824707,
				-1.145211935043335
			],
			"type":"VEC3"
		},
		{
			"bufferView":1,
			"componentType":5126,
			"count":2435,
			"type":"VEC3"
		},
		{
			"bufferView":2,
			"componentType":5126,
			"count":2435,
			"type":"VEC2"
		},
		{
			"bufferView":3,
			"componentType":5123,
			"count":11520,
			"type":"SCALAR"
		},
		{
			"bufferView":4,
			"componentType":5126,
			"count":384,
			"max":[
				1.952958106994629,
				0.4497273564338684,
				0.9498524069786072
			],
			"min":[
				-0.9498523473739624,
				-2.4275436401367188,
				-0.9498523473739624
			],
			"type":"VEC3"
		},
		{
			"bufferView":5,
			"componentType":5126,
			"count":384,
			"type":"VEC3"
		},
		{
			"bufferView":6,
			"componentType":5126,
			"count":384,
			"type":"VEC2"
		},
		{
			"bufferView":7,
			"componentType":5123,
			"count":1152,
			"type":"SCALAR"
		},
		{
			"bufferView":8,
			"componentType":5126,
			"count":2435,
			"max":[
				2.549224853515625,
				13.423650741577148,
				1.1452120542526245
			],
			"min":[
				-1.145211935043335,
				-2.173696517944336,
				-1.1452120542526245
			],
			"type":"VEC3"
		},
		{
			"bufferView":9,
			"componentType":5126,
			"count":2435,
			"type":"VEC3"
		},
		{
			"bufferView":10,
			"componentType":5126,
			"count":2435,
			"type":"VEC2"
		},
		{
			"bufferView":11,
			"componentType":5123,
			"count":11520,
			"type":"SCALAR"
		},
		{
			"bufferView":12,
			"componentType":5126,
			"count":384,
			"max":[
				2.3877134323120117,
				0.4497273564338684,
				0.9498525261878967
			],
			"min":[
				-0.9498523473739624,
				-1.9783368110656738,
				-0.9498524069786072
			],
			"type":"VEC3"
		},
		{
			"bufferView":13,
			"componentType":5126,
			"count":384,
			"type":"VEC3"
		},
		{
			"bufferView":14,
			"componentType":5126,
			"count":384,
			"type":"VEC2"
		},
		{
			"bufferView":15,
			"componentType":5123,
			"count":1152,
			"type":"SCALAR"
		},
		{
			"bufferView":16,
			"componentType":5126,
			"count":2435,
			"max":[
				2.0996992588043213,
				13.423650741577148,
				1.145212173461914
			],
			"min":[
				-1.145211935043335,
				-2.589080810546875,
				-1.145211935043335
			],
			"type":"VEC3"
		},
		{
			"bufferView":17,
			"componentType":5126,
			"count":2435,
			"type":"VEC3"
		},
		{
			"bufferView":18,
			"componentType":5126,
			"count":2435,
			"type":"VEC2"
		},
		{
			"bufferView":19,
			"componentType":5126,
			"count":384,
			"max":[
				1.932725191116333,
				0.4497273564338684,
				0.9498525261878967
			],
			"min":[
				-0.9498523473739624,
				-2.4221065044403076,
				-0.9498524069786072
			],
			"type":"VEC3"
		},
		{
			"bufferView":20,
			"componentType":5126,
			"count":384,
			"type":"VEC3"
		},
		{
			"bufferView":21,
			"componentType":5126,
			"count":384,
			"type":"VEC2"
		},
		{
			"bufferView":22,
			"componentType":5126,
			"count":2435,
			"max":[
				2.554182291030884,
				26.86752700805664,
				1.145211935043335
			],
			"min":[
				-1.145211935043335,
				-2.1719112396240234,
				-1.145211935043335
			],
			"type":"VEC3"
		},
		{
			"bufferView":23,
			"componentType":5126,
			"count":2435,
			"type":"VEC3"
		},
		{
			"bufferView":24,
			"componentType":5126,
			"count":2435,
			"type":"VEC2"
		},
		{
			"bufferView":25,
			"componentType":5126,
			"count":384,
			"max":[
				2.3926706314086914,
				0.4497273564338684,
				0.9498524069786072
			],
			"min":[
				-0.9498523473739624,
				-1.9765514135360718,
				-0.9498523473739624
			],
			"type":"VEC3"
		},
		{
			"bufferView":26,
			"componentType":5126,
			"count":384,
			"type":"VEC3"
		},
		{
			"bufferView":27,
			"componentType":5126,
			"count":384,
			"type":"VEC2"
		},
		{
			"bufferView":28,
			"componentType":5126,
			"count":2435,
			"max":[
				2.5479166507720947,
				18.974592208862305,
				1.145211935043335
			],
			"min":[
				-1.145211935043335,
				-2.168825149536133,
				-1.145211935043335
			],
			"type":"VEC3"
		},
		{
			"bufferView":29,
			"componentType":5126,
			"count":2435,
			"type":"VEC3"
		},
		{
			"bufferView":30,
			"componentType":5126,
			"count":2435,
			"type":"VEC2"
		},
		{
			"bufferView":31,
			"componentType":5126,
			"count":384,
			"max":[
				2.3864049911499023,
				0.4497273564338684,
				0.9498524069786072
			],
			"min":[
				-0.9498523473739624,
				-1.9734654426574707,
				-0.9498523473739624
			],
			"type":"VEC3"
		},
		{
			"bufferView":32,
			"componentType":5126,
			"count":384,
			"type":"VEC3"
		},
		{
			"bufferView":33,
			"componentType":5126,
			"count":384,
			"type":"VEC2"
		},
		{
			"bufferView":34,
			"componentType":5126,
			"count":20,
			"max":[
				0.8333333333333334
			],
			"min":[
				0.041666666666666664
			],
			"type":"SCALAR"
		},
		{
			"bufferView":35,
			"componentType":5126,
			"count":20,
			"type":"VEC3"
		},
		{
			"bufferView":36,
			"componentType":5126,
			"count":20,
			"max":[
				1.6666666666666667
			],
			"min":[
				0.875
			],
			"type":"SCALAR"
		},
		{
			"bufferView":37,
			"componentType":5126,
			"count":20,
			"type":"VEC3"
		},
		{
			"bufferView":38,
			"componentType":5126,
			"count":20,
			"max":[
				2.5
			],
			"min":[
				1.7083333333333333
			],
			"type":"SCALAR"
		},
		{
			"bufferView":39,
			"componentType":5126,
			"count":20,
			"type":"VEC3"
		},
		{
			"bufferView":40,
			"componentType":5126,
			"count":20,
			"max":[
				3.3333333333333335
			],
			"min":[
				2.5416666666666665
			],
			"type":"SCALAR"
		},
		{
			"bufferView":41,
			"componentType":5126,
			"count":20,
			"type":"VEC3"
		},
		{
			"bufferView":42,
			"componentType":5126,
			"count":26,
			"max":[
				4.416666666666667
			],
			"min":[
				3.375
			],
			"type":"SCALAR"
		},
		{
			"bufferView":43,
			"componentType":5126,
			"count":26,
			"type":"VEC3"
		},
		{
			"bufferView":44,
			"componentType":5126,
			"count":26,
			"type":"VEC4"
		},
		{
			"bufferView":45,
			"componentType":5126,
			"count":2,
			"max":[
				4.416666666666667
			],
			"min":[
				3.375
			],
			"type":"SCALAR"
		},
		{
			"bufferView":46,
			"componentType":5126,
			"count":2,
			"type":"VEC3"
		}
	],
	"bufferViews":[
		{
			"buffer":0,
			"byteLength":29220,
			"byteOffset":0,
			"target":34962
		},
		{
			"buffer":0,
			"byteLength":29220,
			"byteOffset":29220,
			"target":34962
		},
		{
			"buffer":0,
			"byteLength":19480,
			"byteOffset":58440,
			"target":34962
		},
		{
			"buffer":0,
			"byteLength":23040,
			"byteOffset":77920,
			"target":34963
		},
		{
			"buffer":0,
			"byteLength":4608,
			"byteOffset":100960,
			"target":34962
		},
		{
			"buffer":0,
			"byteLength":4608,
			"byteOffset":105568,
			"target":34962
		},
		{
			"buffer":0,
			"byteLength":3072,
			"byteOffset":110176,
			"target":34962
		},
		{
			"buffer":0,
			"byteLength":2304,
			"byteOffset":113248,
			"target":34963
		},
		{
			"buffer":0,
			"byteLength":29220,
			"byteOffset":115552,
			"target":34962
		},
		{
			"buffer":0,
			"byteLength":29220,
			"byteOffset":144772,
			"target":34962
		},
		{
			"buffer":0,
			"byteLength":19480,
			"byteOffset":173992,
			"target":34962
		},
		{
			"buffer":0,
			"byteLength":23040,
			"byteOffset":193472,
			"target":34963
		},
		{
			"buffer":0,
			"byteLength":4608,
			"byteOffset":216512,
			"target":34962
		},
		{
			"buffer":0,
			"byteLength":4608,
			"byteOffset":221120,
			"target":34962
		},
		{
			"buffer":0,
			"byteLength":3072,
			"byteOffset":225728,
			"target":34962
		},
		{
			"buffer":0,
			"byteLength":2304,
			"byteOffset":228800,
			"target":34963
		},
		{
			"buffer":0,
			"byteLength":29220,
			"byteOffset":231104,
			"target":34962
		},
		{
			"buffer":0,
			"byteLength":29220,
			"byteOffset":260324,
			"target":34962
		},
		{
			"buffer":0,
			"byteLength":19480,
			"byteOffset":289544,
			"target":34962
		},
		{
			"buffer":0,
			"byteLength":4608,
			"byteOffset":309024,
			"target":34962
		},
		{
			"buffer":0,
			"byteLength":4608,
			"byteOffset":313632,
			"target":34962
		},
		{
			"buffer":0,
			"byteLength":3072,
			"byteOffset":318240,
			"target":34962
		},
		{
			"buffer":0,
			"byteLength":29220,
			"byteOffset":321312,
			"target":34962
		},
		{
			"buffer":0,
			"byteLength":29220,
			"byteOffset":350532,
			"target":34962
		},
		{
			"buffer":0,
			"byteLength":19480,
			"byteOffset":379752,
			"target":34962
		},
		{
			"buffer":0,
			"byteLength":4608,
			"byteOffset":399232,
			"target":34962
		},
		{
			"buffer":0,
			"byteLength":4608,
			"byteOffset":403840,
			"target":34962
		},
		{
			"buffer":0,
			"byteLength":3072,
			"byteOffset":408448,
			"target":34962
		},
		{
			"buffer":0,
			"byteLength":29220,
			"byteOffset":411520,
			"target":34962
		},
		{
			"buffer":0,
			"byteLength":29220,
			"byteOffset":440740,
			"target":34962
		},
		{
			"buffer":0,
			"byteLength":19480,
			"byteOffset":469960,
			"target":34962
		},
		{
			"buffer":0,
			"byteLength":4608,
			"byteOffset":489440,
			"target":34962
		},
		{
			"buffer":0,
			"byteLength":4608,
			"byteOffset":494048,
			"target":34962
		},
		{
			"buffer":0,
			"byteLength":3072,
			"byteOffset":498656,
			"target":34962
		},
		{
			"buffer":0,
			"byteLength":80,
			"byteOffset":501728
		},
		{
			"buffer":0,
			"byteLength":240,
			"byteOffset":501808
		},
		{
			"buffer":0,
			"byteLength":80,
			"byteOffset":502048
		},
		{
			"buffer":0,
			"byteLength":240,
			"byteOffset":502128
		},
		{
			"buffer":0,
			"byteLength":80,
			"byteOffset":502368
		},
		{
			"buffer":0,
			"byteLength":240,
			"byteOffset":502448
		},
		{
			"buffer":0,
			"byteLength":80,
			"byteOffset":502688
		},
		{
			"buffer":0,
			"byteLength":240,
			"byteOffset":502768
		},
		{
			"buffer":0,
			"byteLength":104,
			"byteOffset":503008
		},
		{
			"buffer":0,
			"byteLength":312,
			"byteOffset":503112
		},
		{
			"buffer":0,
			"byteLength":416,
			"byteOffset":503424
		},
		{
			"buffer":0,
			"byteLength":8,
			"byteOffset":503840
		},
		{
			"buffer":0,
			"byteLength":24,
			"byteOffset":503848
		}
	],
	"samplers":[
		{
			"magFilter":9729,
			"minFilter":9987
		}
	],
	"buffers":[
		{
			"byteLength":503872,
			"uri":"untitled.bin"
		}
	]
}
